<?xml version="1.0" standalone="no"?>
<!DOCTYPE svg PUBLIC "-//W3C//DTD SVG 20010904//EN"
 "http://www.w3.org/TR/2001/REC-SVG-20010904/DTD/svg10.dtd">
<svg version="1.0" xmlns="http://www.w3.org/2000/svg"
 width="144.000000pt" height="144.000000pt" viewBox="0 0 144.000000 144.000000"
 preserveAspectRatio="xMidYMid meet">
<metadata>
Created by potrace 1.11, written by Peter Selinger 2001-2013
</metadata>
<g transform="translate(0.000000,144.000000) scale(0.100000,-0.100000)"
fill="#000000" stroke="none">
<path d="M293 1123 c-7 -2 -13 -16 -13 -29 0 -21 -5 -24 -35 -24 l-35 0 2
-347 3 -348 500 0 500 0 3 348 2 347 -35 0 c-30 0 -35 3 -35 24 0 31 -15 36
-109 36 -94 0 -175 -20 -259 -65 l-64 -34 -69 35 c-38 19 -95 41 -126 49 -54
14 -203 19 -230 8z m210 -42 c41 -11 95 -30 119 -42 84 -42 78 -18 78 -337 0
-267 -1 -284 -17 -277 -99 39 -210 68 -280 72 l-83 6 0 293 c0 224 3 294 13
297 27 11 98 6 170 -12z m605 11 c9 -7 12 -73 10 -298 l-3 -289 -85 -7 c-56
-4 -120 -18 -188 -42 -73 -24 -105 -31 -108 -23 -2 7 -3 136 -2 287 l3 274 33
23 c83 55 296 102 340 75z m-828 -341 l0 -278 89 -6 c50 -4 120 -17 162 -31
l74 -24 -182 -1 -183 -1 0 310 c0 303 0 310 20 310 20 0 20 -7 20 -279z m910
-31 l0 -310 -177 1 c-168 1 -176 2 -143 16 46 20 170 43 231 43 l49 0 0 280
c0 273 0 280 20 280 20 0 20 -7 20 -310z"/>
</g>
</svg>
